<?xml version="1.0" encoding="UTF-8" standalone="no"?>
<!-- Created with Inkscape (http://www.inkscape.org/) -->

<svg
   xmlns:dc="http://purl.org/dc/elements/1.1/"
   xmlns:cc="http://creativecommons.org/ns#"
   xmlns:rdf="http://www.w3.org/1999/02/22-rdf-syntax-ns#"
   xmlns:svg="http://www.w3.org/2000/svg"
   xmlns="http://www.w3.org/2000/svg"
   xmlns:xlink="http://www.w3.org/1999/xlink"
   xmlns:sodipodi="http://sodipodi.sourceforge.net/DTD/sodipodi-0.dtd"
   xmlns:inkscape="http://www.inkscape.org/namespaces/inkscape"
   width="210mm"
   height="297mm"
   viewBox="0 0 744.09448819 1052.3622047"
   id="svg2"
   version="1.1"
   inkscape:version="0.91 r13725"
   sodipodi:docname="joins.svg">
  <defs
     id="defs4">
    <style
       id="style4"><![CDATA[
.filled {
  fill: red;
  fill-opacity: 0.5;
}
.lines {
  stroke: #000;
  stroke-width: 2px;
  fill: none;
}
]]></style>
    <mask id="mask_side">
      <path
       style="fill: #fff; fill-rule: evenodd"
       d="M-27,0m-52,0a52,52 0 1,0 104,0a52,52 0 1,0 -104,0 M27,0m-52,0a52,52 0 1,0 104,0a52,52 0 1,0 -104,0" />
    </mask>
    <mask id="mask_circle">
      <path
       style="fill: #fff"
       d="M27,0m-52,0a52,52 0 1,0 104,0a52,52 0 1,0 -104,0" />
    </mask>
      <path id="join_c"
         class="filled"
         mask="url(#mask_circle)"
         d="M-27,0m-52,0a52,52 0 1,0 104,0a52,52 0 1,0 -104,0" />
      <path id="join_a"
         class="filled"
         mask="url(#mask_side)"
         d="M-27,0m-52,0a52,52 0 1,0 104,0a52,52 0 1,0 -104,0" />
      <path id="join_b"
         class="filled"
         mask="url(#mask_side)"
         d="M27,0m-52,0a52,52 0 1,0 104,0a52,52 0 1,0 -104,0" />
    <g
       id="join_l">
      <path
         class="lines"
         mask="url(#mask_side)"
         d="M -79,0 A 52,52 0 0 0 25,0 52,52 0 1 0 -79,0 m 54,0 A 52,52 0 0 0 79,0 52,52 0 1 0 -25,0" />
    </g>
  </defs>
  <sodipodi:namedview
     id="base"
     pagecolor="#ffffff"
     bordercolor="#666666"
     borderopacity="1.0"
     inkscape:pageopacity="0.0"
     inkscape:pageshadow="2"
     inkscape:zoom="1.2331142"
     inkscape:cx="128.31486"
     inkscape:cy="827.77061"
     inkscape:document-units="px"
     inkscape:current-layer="layer1"
     showgrid="false"
     inkscape:window-width="1855"
     inkscape:window-height="1056"
     inkscape:window-x="65"
     inkscape:window-y="24"
     inkscape:window-maximized="1" />
  <metadata
     id="metadata7">
    <rdf:RDF>
      <cc:Work
         rdf:about="">
        <dc:format>image/svg+xml</dc:format>
        <dc:type
           rdf:resource="http://purl.org/dc/dcmitype/StillImage" />
        <dc:title />
      </cc:Work>
    </rdf:RDF>
  </metadata>
  <g
     inkscape:label="Layer 1"
     inkscape:groupmode="layer"
     id="layer1">
    <image
       sodipodi:absref="/home/bozaro/git.bozaro.ru/tech-db-lectures/static/03/joins.png"
       xlink:href="joins.png"
       y="0"
       x="0"
       id="image8076"
       preserveAspectRatio="none"
       height="472.20001"
       width="600.59998" />
       <g transform="translate(80, 75)">
          <use xlink:href="#join_c" />
          <use xlink:href="#join_a" />
          <use xlink:href="#join_l" />
       </g>
       <g transform="translate(520, 75)">
          <use xlink:href="#join_c" />
          <use xlink:href="#join_b" />
          <use xlink:href="#join_l" />
       </g>
       <g transform="translate(80, 240)">
          <use xlink:href="#join_a" />
          <use xlink:href="#join_l" />
       </g>
       <g transform="translate(520, 240)">
          <use xlink:href="#join_b" />
          <use xlink:href="#join_l" />
       </g>
       <g transform="translate(300, 175)">
          <use xlink:href="#join_c" />
       </g>
       <g transform="translate(215, 380)">
          <use xlink:href="#join_c" />
          <use xlink:href="#join_a" />
          <use xlink:href="#join_b" />
          <use xlink:href="#join_l" />
       </g>
       <g transform="translate(385, 380)">
          <use xlink:href="#join_a" />
          <use xlink:href="#join_b" />
          <use xlink:href="#join_l" />
       </g>
  </g>
</svg>
