<?xml version="1.0" encoding="UTF-8"?>
<!DOCTYPE svg PUBLIC "-//W3C//DTD SVG 1.1//EN" "http://www.w3.org/Graphics/SVG/1.1/DTD/svg11.dtd">
<!-- Creator: CorelDRAW X6 -->
<svg xmlns="http://www.w3.org/2000/svg" xml:space="preserve" width="136.649mm" height="259.686mm" version="1.1" style="shape-rendering:geometricPrecision; text-rendering:geometricPrecision; image-rendering:optimizeQuality; fill-rule:evenodd; clip-rule:evenodd"
viewBox="0 0 14496 27547"
 xmlns:xlink="http://www.w3.org/1999/xlink">
 <defs>
  <style type="text/css">
   <![CDATA[
    .str0 {stroke:black;stroke-width:112.264;stroke-linecap:round;stroke-linejoin:round}
    .fil1 {fill:none}
    .fil3 {fill:black}
    .fil6 {fill:#1F7B26}
    .fil2 {fill:#7F4408}
    .fil9 {fill:#7F7F7F}
    .fil7 {fill:#F5BEDD}
    .fil8 {fill:#F79D90}
    .fil4 {fill:red}
    .fil0 {fill:#FFCC00}
    .fil5 {fill:white}
   ]]>
  </style>
 </defs>
 <g id="Слой_x0020_1">
  <metadata id="CorelCorpID_0Corel-Layer"/>
  <g id="_696363808">
   <path class="fil0" d="M3224 7671c0,0 -749,836 -1629,-176l-1411 -654c0,0 -250,-225 -51,-535 198,-311 440,-95 440,-95l785 293c0,0 190,17 52,-164 -138,-181 -863,-751 -863,-751 0,0 -328,-310 -9,-586 319,-276 483,17 483,17l872 802c0,0 250,35 181,-163 -69,-199 -449,-777 -449,-777 0,0 -164,-259 147,-483 311,-225 526,86 526,86l760 1208c0,0 448,354 578,354l388 -371c0,0 233,-285 587,-9 353,276 -26,578 -26,578l-501 630c0,0 4,893 -860,796z"/>
   <path class="fil1 str0" d="M3224 7671c0,0 -749,836 -1629,-176l-1411 -654c0,0 -250,-225 -51,-535 198,-311 440,-95 440,-95l785 293c0,0 190,17 52,-164 -138,-181 -863,-751 -863,-751 0,0 -328,-310 -9,-586 319,-276 483,17 483,17l872 802c0,0 250,35 181,-163 -69,-199 -449,-777 -449,-777 0,0 -164,-259 147,-483 311,-225 526,86 526,86l760 1208c0,0 448,354 578,354l388 -371c0,0 233,-285 587,-9 353,276 -26,578 -26,578l-501 630c0,0 4,893 -860,796l0 0m-460 -951c0,0 552,112 544,552"/>
   <path class="fil0" d="M9338 5963l-39 366c0,0 733,540 97,848l0 713c0,0 -367,173 -1157,193 -790,19 -1927,-598 -1927,-598l-77 -2158c0,0 -848,308 -906,-463 -58,-771 733,-867 733,-867l19 886c0,0 115,270 327,213 0,0 386,231 309,-771 0,0 -482,-1735 173,-2544 656,-810 2062,-694 2062,-694 0,0 1157,173 1080,1041 0,0 38,192 250,250 212,58 77,540 77,540l-1175 1002 655 38c0,0 414,-15 385,521 0,0 58,559 -925,327l39 1157z"/>
   <path class="fil1 str0" d="M9338 5963l-39 366c0,0 733,540 97,848l0 713c0,0 -367,173 -1157,193 -790,19 -1927,-598 -1927,-598l-77 -2158c0,0 -848,308 -906,-463 -58,-771 733,-867 733,-867l19 886c0,0 115,270 327,213 0,0 386,231 309,-771 0,0 -482,-1735 173,-2544 656,-810 2062,-694 2062,-694 0,0 1157,173 1080,1041 0,0 38,192 250,250 212,58 77,540 77,540l-1175 1002 655 38c0,0 414,-15 385,521 0,0 58,559 -925,327l39 1157zm-2082 -2178l-1194 212"/>
   <path class="fil2" d="M11188 5520c0,0 -771,-771 -983,-810l-64 5c-106,128 -346,229 -889,66l-88 6c0,0 -231,-58 -539,193l-829 790c0,0 -116,193 96,173 0,0 1812,386 3277,-154 0,0 212,-38 19,-269z"/>
   <path class="fil1 str0" d="M11188 5520c0,0 -771,-771 -983,-810l-64 5c-106,128 -346,229 -889,66l-88 6c0,0 -231,-58 -539,193l-829 790c0,0 -116,193 96,173 0,0 1812,386 3277,-154 0,0 212,-38 19,-269l0 0z"/>
   <path class="fil3" d="M8875 6541l0 -478c-579,-34 -983,-120 -983,-120 -212,20 -96,-173 -96,-173l212 -202c-359,-98 -943,-172 -1002,241 0,0 -47,207 100,431 152,-29 431,-47 729,108 0,0 534,-220 738,419 382,5 849,-23 302,-226z"/>
   <path class="fil1 str0" d="M8875 6541l0 -478c-579,-34 -983,-120 -983,-120 -212,20 -96,-173 -96,-173l212 -202c-359,-98 -943,-172 -1002,241 0,0 -47,207 100,431 152,-29 431,-47 729,108 0,0 534,-220 738,419 382,5 849,-23 302,-226l0 0z"/>
   <path class="fil4" d="M7835 6348c-298,-155 -577,-137 -729,-108 135,208 437,429 1095,513 0,0 174,11 372,14 -204,-639 -738,-419 -738,-419z"/>
   <path class="fil1 str0" d="M7835 6348c-298,-155 -577,-137 -729,-108 135,208 437,429 1095,513 0,0 174,11 372,14 -204,-639 -738,-419 -738,-419l0 0zm1068 -1319c0,0 -572,352 -616,528m880 -572c0,0 -396,440 -396,616m572 -528l-220 617m528 -617c0,0 133,264 133,528m44 -484c0,0 352,396 352,573m-88 -661c0,0 484,308 528,528m-4975 -1012c0,0 308,-132 396,0"/>
   <path class="fil5" d="M9079 3664c0,487 -394,881 -880,881 -487,0 -881,-394 -881,-881 0,-486 394,-880 881,-880 486,0 880,394 880,880z"/>
   <path class="fil1 str0" d="M9079 3664c0,487 -394,881 -880,881 -487,0 -881,-394 -881,-881 0,-486 394,-880 881,-880 486,0 880,394 880,880l0 0z"/>
   <path class="fil5" d="M9916 2784c-438,0 -793,355 -793,792 0,124 29,241 80,345l636 37c0,0 320,-11 378,351 288,-118 491,-402 491,-733 0,-437 -355,-792 -792,-792z"/>
   <path class="fil1 str0" d="M9916 2784c-438,0 -793,355 -793,792 0,124 29,241 80,345l636 37c0,0 320,-11 378,351 288,-118 491,-402 491,-733 0,-437 -355,-792 -792,-792l0 0z"/>
   <path class="fil3" d="M8005 3708c0,88 -71,159 -159,159 -87,0 -158,-71 -158,-159 0,-87 71,-158 158,-158 88,0 159,71 159,158z"/>
   <path class="fil3" d="M10206 3664c0,88 -71,159 -158,159 -88,0 -159,-71 -159,-159 0,-87 71,-158 159,-158 87,0 158,71 158,158z"/>
   <path class="fil1 str0" d="M9000 7178c0,0 203,84 396,-1"/>
   <path class="fil2" d="M7580 143c-941,165 -1509,526 -1714,678 293,20 806,151 1223,759 333,-279 770,-404 1136,-459 16,-699 -373,-914 -645,-978z"/>
   <path class="fil1 str0" d="M7580 143c-941,165 -1509,526 -1714,678 293,20 806,151 1223,759 333,-279 770,-404 1136,-459 16,-699 -373,-914 -645,-978l0 0z"/>
   <path class="fil2" d="M8807 62c-130,-8 -212,-6 -212,-6 -377,0 -715,34 -1015,87 272,64 661,279 645,978 407,-60 727,-34 727,-34 0,0 2,0 3,0 246,-602 36,-894 -148,-1025z"/>
   <path class="fil1 str0" d="M8807 62c-130,-8 -212,-6 -212,-6 -377,0 -715,34 -1015,87 272,64 661,279 645,978 407,-60 727,-34 727,-34 0,0 3,0 3,0 246,-602 36,-894 -148,-1025l0 0z"/>
   <path class="fil2" d="M5866 821c-59,43 -89,70 -89,70 -968,1585 -528,4622 -528,4622 176,968 703,1174 1036,1204l-50 -1390c0,0 -848,308 -906,-463 -58,-771 733,-867 733,-867l19 886c0,0 115,270 327,213 0,0 386,231 309,-771 0,0 -482,-1735 173,-2544 61,-75 127,-141 199,-201 -417,-608 -930,-739 -1223,-759z"/>
   <path class="fil1 str0" d="M5866 821c-59,43 -89,70 -89,70 -968,1585 -528,4622 -528,4622 176,968 703,1174 1036,1204l-50 -1390c0,0 -848,308 -906,-463 -58,-771 733,-867 733,-867l19 886c0,0 115,270 327,213 0,0 386,231 309,-771 0,0 -482,-1735 173,-2544 61,-75 127,-141 199,-201 -417,-608 -930,-739 -1223,-759l0 0z"/>
   <path class="fil2" d="M9883 297c-374,-171 -818,-221 -1076,-235 184,131 394,423 148,1025 28,5 372,63 665,254 419,-373 328,-845 263,-1044z"/>
   <path class="fil1 str0" d="M9883 297c-374,-171 -818,-221 -1076,-235 184,131 394,423 148,1025 28,5 372,63 665,254 419,-373 328,-845 263,-1044l0 0z"/>
   <path class="fil2" d="M10513 995c-75,181 -235,451 -571,680 68,125 106,274 90,453 0,0 4,22 19,55 217,-71 509,-300 481,-1028 -2,-56 -9,-109 -19,-160z"/>
   <path class="fil1 str0" d="M10513 995c-75,181 -235,451 -571,680 68,125 106,274 90,453 0,0 4,22 19,55 217,-71 509,-300 481,-1028 -2,-56 -9,-109 -19,-160l0 0z"/>
   <path class="fil2" d="M10513 995c-72,-342 -328,-560 -630,-698 65,199 156,671 -263,1044 128,84 245,193 322,334 336,-229 496,-499 571,-680z"/>
   <path class="fil1 str0" d="M10513 995c-72,-342 -328,-560 -630,-698 65,199 156,671 -263,1044 128,84 245,193 322,334 336,-229 496,-499 571,-680l0 0z"/>
   <path class="fil6" d="M9828 8375l87 250c10,-29 20,-58 30,-89 491,751 1203,2701 1203,2701 -1,8 -2,16 -3,24l884 284c-46,207 -343,401 -617,540 770,1149 723,2142 597,2694 2133,-832 2133,-3190 2133,-3190 -396,-1761 -4315,-3214 -4314,-3214z"/>
   <path class="fil1 str0" d="M9828 8375l87 250c10,-29 20,-58 30,-89 491,751 1203,2701 1203,2701 -1,8 -2,16 -3,24l884 284c-46,207 -343,401 -617,540 770,1149 723,2142 597,2694 2133,-832 2133,-3190 2133,-3190 -396,-1761 -4315,-3214 -4315,-3214l1 0z"/>
   <path class="fil6" d="M3948 7363c-116,190 -329,352 -724,308 0,0 -664,741 -1477,-18 -120,89 -284,254 -196,458 0,0 -2,3 -4,8 433,315 1463,822 2640,-334 56,-177 70,-412 -239,-422z"/>
   <path class="fil1 str0" d="M3948 7363c-116,190 -329,352 -724,308 0,0 -664,741 -1477,-18 -120,89 -284,254 -196,458 0,0 -2,3 -4,8 433,315 1463,822 2640,-334 56,-177 70,-412 -239,-422l0 0z"/>
   <path class="fil6" d="M5914 8735c-187,39 -1003,217 -1854,565 0,0 528,-1233 44,-1321 0,0 49,-86 83,-194 -1177,1156 -2207,649 -2640,334 -57,131 -826,1989 532,3602 0,0 969,925 2201,264l1056 -469c28,-66 45,-103 45,-103l528 -2465c-5,-81 -3,-151 5,-213z"/>
   <path class="fil1 str0" d="M5914 8735c-187,39 -1003,217 -1854,565 0,0 528,-1233 44,-1321 0,0 49,-86 83,-194 -1177,1156 -2207,649 -2640,334 -57,131 -826,1989 532,3602 0,0 969,925 2201,264l1056 -469c28,-66 45,-103 45,-103l528 -2465c-5,-81 -3,-151 5,-213l0 0z"/>
   <path class="fil6" d="M9945 8536c-41,-62 -80,-117 -118,-161 1,0 -748,1585 -3478,-44 0,0 -155,-28 -282,76 725,566 3192,2288 3878,129z"/>
   <path class="fil1 str0" d="M9945 8536c-41,-62 -80,-117 -118,-161 0,0 -748,1585 -3478,-44 0,0 -155,-28 -282,76 725,566 3192,2288 3878,129l0 0z"/>
   <path class="fil6" d="M11280 11897c0,0 -176,-440 -132,-660 0,0 -712,-1950 -1203,-2701 -686,2159 -3153,437 -3878,-129 -97,79 -177,236 -158,541l-528 2465c0,0 -1098,2371 -311,3825 1018,398 4373,1513 6783,18l0 -13c0,0 792,-1497 -573,-3346z"/>
   <path class="fil1 str0" d="M11280 11897c0,0 -176,-440 -132,-660 0,0 -712,-1950 -1203,-2701 -686,2159 -3153,437 -3878,-129 -97,79 -177,236 -158,541l-528 2465c0,0 -1098,2371 -311,3825 1018,398 4373,1513 6783,18l0 -13c0,0 792,-1497 -573,-3346l0 0z"/>
   <path class="fil6" d="M5070 15238c1,2 2,3 3,5l44 529c0,0 1100,968 3786,792 2686,-176 2950,-748 2950,-748l0 -560c-2410,1495 -5765,380 -6783,-18z"/>
   <path class="fil1 str0" d="M5070 15238c1,2 2,3 3,5l44 529c0,0 1100,968 3786,792 2686,-176 2950,-748 2950,-748l0 -560c-2410,1495 -5765,380 -6783,-18l0 0zm3396 -6064l-36 294m269 -307l0 343m221 -367l37 294m184 -368l73 282"/>
   <path class="fil7" d="M6261 7451c0,0 -308,484 -176,880 0,0 1189,1189 2070,1145 0,0 176,-1189 572,-1365 0,0 -2201,-176 -2466,-660z"/>
   <path class="fil1 str0" d="M6261 7451c0,0 -308,484 -176,880 0,0 1189,1189 2070,1145 0,0 176,-1189 572,-1365 0,0 -2201,-176 -2466,-660l0 0z"/>
   <path class="fil7" d="M9343 9212c0,0 -88,-661 -616,-1101 0,0 748,-220 880,-440 0,0 397,484 397,660 0,0 -132,572 -661,881z"/>
   <path class="fil1 str0" d="M9343 9212c0,0 -88,-661 -616,-1101 0,0 748,-220 880,-440 0,0 397,484 397,660 0,0 -132,572 -661,881l0 0z"/>
   <path class="fil8" d="M8777 8155l-121 0c-198,157 -334,567 -413,889 212,94 568,154 1024,-126 -75,-218 -220,-518 -490,-763z"/>
   <path class="fil1 str0" d="M8777 8155l-121 0c-198,157 -334,567 -413,889 212,94 568,154 1024,-126 -75,-218 -220,-518 -490,-763l0 0zm-4717 1761l0 -616"/>
   <path class="fil9" d="M11411 16589c0,0 67,-281 33,-490 -387,170 -1129,372 -2541,465 -1799,118 -2886,-277 -3409,-552 -155,1335 -893,7872 -681,9356 0,0 2182,737 3049,211l447 -8123c0,0 368,26 526,-26 0,0 1156,6335 841,7991 0,0 1945,762 2865,158 0,0 26,-5810 -1130,-8990z"/>
   <path class="fil1 str0" d="M11411 16589c0,0 67,-281 33,-490 -387,170 -1129,372 -2541,465 -1799,118 -2886,-277 -3409,-552 -155,1335 -893,7872 -681,9356 0,0 2182,737 3049,211l447 -8123c0,0 368,26 526,-26 0,0 1156,6335 841,7991 0,0 1945,762 2865,158 0,0 26,-5810 -1130,-8990l0 0z"/>
   <path class="fil3" d="M12541 25684l-72 -62c-706,390 -1915,86 -2482,-93 -178,190 -469,561 -469,944 0,0 421,814 1288,604l53 -368c0,0 1419,1078 3575,158 0,0 210,-710 -1893,-1183z"/>
   <path class="fil1 str0" d="M12541 25684l-72 -62c-706,390 -1915,86 -2482,-93 -178,190 -469,561 -469,944 0,0 421,814 1288,604l53 -368c0,0 1419,1078 3575,158 0,0 210,-710 -1893,-1183l0 0"/>
   <path class="fil3" d="M7730 25710l-24 -55c-762,298 -2172,-69 -2693,-224 -434,241 -1249,764 -1383,1357 0,0 1708,1367 3522,289l105 -342 132 263c0,0 499,27 657,-236 0,0 26,-842 -316,-1052z"/>
   <path class="fil1 str0" d="M7730 25710l-24 -55c-762,298 -2172,-69 -2693,-224 -434,241 -1249,764 -1383,1357 0,0 1708,1367 3522,289l105 -342 132 263c0,0 499,27 657,-236 0,0 26,-842 -316,-1052l0 0"/>
  </g>
 </g>
</svg>
