<svg xmlns="http://www.w3.org/2000/svg" xmlns:xlink="http://www.w3.org/1999/xlink" width="700.12" height="245.92" viewBox="0 0 700.12 245.92"><defs><style>.cls-1,.cls-5{fill:none;}.cls-2{fill:#008cc1;}.cls-3{fill:#fff;}.cls-4{fill:#65b245;}.cls-5{stroke:#fff;stroke-miterlimit:10;stroke-width:3.5px;}.cls-6{clip-path:url(#clip-path);}.cls-7{fill:#101010;}</style><clipPath id="clip-path"><rect class="cls-1" width="700.12" height="245.86"/></clipPath></defs><title>logo-neo4j</title><g id="Layer_2" data-name="Layer 2"><g id="Layer_1-2" data-name="Layer 1"><path class="cls-2" d="M206.42,111.62A103.21,103.21,0,1,1,103.21,8.41,103.21,103.21,0,0,1,206.42,111.62"/><path class="cls-3" d="M45.8,77.79a8.26,8.26,0,1,1-8.26-8.26,8.26,8.26,0,0,1,8.26,8.26"/><path class="cls-3" d="M47.17,100.42a8.26,8.26,0,1,1-8.26-8.26,8.26,8.26,0,0,1,8.26,8.26"/><path class="cls-3" d="M52.22,124.41A8.26,8.26,0,1,1,44,116.15a8.26,8.26,0,0,1,8.26,8.26"/><path class="cls-3" d="M63.55,145.91a8.26,8.26,0,1,1-8.26-8.26,8.26,8.26,0,0,1,8.26,8.26"/><path class="cls-3" d="M151.87,176a8.26,8.26,0,1,1-8.26-8.26,8.26,8.26,0,0,1,8.26,8.26"/><path class="cls-3" d="M166.87,158.23a8.26,8.26,0,1,1-8.26-8.26,8.26,8.26,0,0,1,8.26,8.26"/><path class="cls-3" d="M123.36,32.75a8.26,8.26,0,1,1-8.26-8.26,8.26,8.26,0,0,1,8.26,8.26"/><path class="cls-3" d="M101.7,25.14a8.26,8.26,0,1,1-8.26-8.26,8.26,8.26,0,0,1,8.26,8.26"/><path class="cls-4" d="M215.2,87.05a55,55,0,1,1-55-55,55,55,0,0,1,55,55"/><circle class="cls-5" cx="160.2" cy="87.05" r="55"/><path class="cls-4" d="M129.81,199.17a45,45,0,1,1-45-45,45,45,0,0,1,45,45"/><g class="cls-6"><circle class="cls-5" cx="84.81" cy="199.17" r="45"/></g><path class="cls-4" d="M77.8,31.75a30,30,0,1,1-30-30,30,30,0,0,1,30,30"/><g class="cls-6"><circle class="cls-5" cx="47.8" cy="31.75" r="30"/></g><path class="cls-7" d="M240.53,51.14h10v19.4c4.8-11.8,14.8-21,35.2-21,23.2,0,38.8,15.6,38.8,40.2v62.2h-10V91.74c0-20.2-12.4-32.8-31-32.8-20.2,0-33,15.6-33,38.8v54.2h-10V51.14"/><path class="cls-7" d="M342.33,101.74c0-31.4,21.4-53,49.2-53,27.4,0,46.8,22.6,46.8,50.2,0,0,0,3-.2,5h-86c.6,24.2,16.8,41.4,39.8,41.4,18.8,0,31.8-8,37.8-15.6v11.8c-9.4,8.4-20.8,13.2-37.8,13.2-29,0-49.6-21.2-49.6-52.4v-.6m85.4-6.8c-.2-20.6-16.2-36.8-36.2-36.8-21,0-38.2,16.2-39,36.8Z"/><path class="cls-7" d="M506.93,48.54c29.6,0,53,22.6,53,53s-23.4,53-53,53-53-22.6-53-53,23.4-53,53-53m0,96.6c24.6,0,43-18.8,43-43.6s-18.4-43.6-43-43.6-43,18.8-43,43.6S482.33,145.14,506.93,145.14Z"/><polyline class="cls-7" points="612.73 51.14 623.92 51.14 581.13 142.34 643.32 142.34 643.32 109.34 653.72 109.34 653.72 190.54 643.32 190.54 643.32 151.94 565.33 151.94 612.73 51.14"/><path class="cls-7" d="M687.92,51.14h10v114.8c0,22.6-13,27.2-25.6,27.2a30.87,30.87,0,0,1-6.6-.6v-9.4a48.78,48.78,0,0,0,7.6.6c10.2,0,14.6-5,14.6-17.8V51.14m-2.2-27a7.2,7.2,0,1,1,7.2,7A7.17,7.17,0,0,1,685.72,24.14Z"/></g></g></svg>