<?xml version="1.0" encoding="UTF-8" standalone="no"?>
<!-- Created with Inkscape (http://www.inkscape.org/) -->

<svg
   xmlns:dc="http://purl.org/dc/elements/1.1/"
   xmlns:cc="http://creativecommons.org/ns#"
   xmlns:rdf="http://www.w3.org/1999/02/22-rdf-syntax-ns#"
   xmlns:svg="http://www.w3.org/2000/svg"
   xmlns="http://www.w3.org/2000/svg"
   xmlns:sodipodi="http://sodipodi.sourceforge.net/DTD/sodipodi-0.dtd"
   xmlns:inkscape="http://www.inkscape.org/namespaces/inkscape"
   width="500.07758"
   height="486.75089"
   id="svg2"
   version="1.1"
   inkscape:version="0.48.0 r9654"
   sodipodi:docname="Slowpoke.svg">
  <defs
     id="defs4" />
  <sodipodi:namedview
     id="base"
     pagecolor="#ffffff"
     bordercolor="#666666"
     borderopacity="1.0"
     inkscape:pageopacity="0.0"
     inkscape:pageshadow="2"
     inkscape:zoom="0.7"
     inkscape:cx="148.25988"
     inkscape:cy="134.79632"
     inkscape:document-units="px"
     inkscape:current-layer="layer1"
     showgrid="false"
     inkscape:window-width="1280"
     inkscape:window-height="904"
     inkscape:window-x="-4"
     inkscape:window-y="-4"
     inkscape:window-maximized="1"
     inkscape:snap-bbox="true"
     inkscape:object-paths="true"
     inkscape:snap-intersection-paths="true"
     inkscape:object-nodes="true"
     inkscape:snap-global="false"
     fit-margin-top="0"
     fit-margin-left="0"
     fit-margin-right="0"
     fit-margin-bottom="0"
     showborder="false" />
  <metadata
     id="metadata7">
    <rdf:RDF>
      <cc:Work
         rdf:about="">
        <dc:format>image/svg+xml</dc:format>
        <dc:type
           rdf:resource="http://purl.org/dc/dcmitype/StillImage" />
        <dc:title />
      </cc:Work>
    </rdf:RDF>
  </metadata>
  <g
     inkscape:label="Layer 1"
     inkscape:groupmode="layer"
     id="layer1"
     transform="translate(-192.55866,-89.969029)">
    <g
       id="g3676"
       transform="matrix(1.8244941,0,0,1.8244941,-158.77212,-475.49453)">
      <path
         sodipodi:nodetypes="csssssssssssc"
         inkscape:connector-curvature="0"
         id="path2888"
         d="m 397.5,427.36218 c 0.542,2.71001 19.722,-19.88538 16.07143,-40 -4.60895,-25.39523 -28.42502,-46.63855 -51.42857,-48.92857 -12.08836,-1.20341 -24.38,-0.4805 -36.42857,1.07143 -9.45168,1.21744 -18.36243,5.61213 -27.85715,6.42857 -6.44442,0.55415 -18.30587,-0.12345 -19.375,-1.07143 -2.77763,-2.46287 -1.59133,-3.46535 0.0893,-4.28571 1.28407,-0.62679 9.19043,-2.84801 13.92857,-3.57143 8.89803,-1.35855 14.76869,-7.97172 21.42857,-12.14286 18.08936,-11.32952 45.35448,-15.29638 68.21429,-12.5 42.38739,5.18514 67.37579,34.03361 78.57143,66.42857 12.11426,35.05302 -2.8966,79.12954 -23.21429,100 -4.51569,4.63855 -13.92857,14.28571 -13.92857,14.28571"
         style="fill:#f19bbc;fill-opacity:1;stroke:#000000;stroke-width:3.125;stroke-linejoin:round;stroke-miterlimit:4;stroke-dasharray:none" />
      <path
         sodipodi:nodetypes="cssssssssss"
         inkscape:connector-curvature="0"
         id="path2868"
         d="m 414.16254,501.82905 c 3.14325,1.37517 -15.11488,39.01334 -40.4061,44.69925 -31.38817,7.05661 -75.80211,13.48663 -105.56094,1.26269 -22.74465,-9.34275 -35.65472,-19.7064 -37.88072,-44.19417 -3.17347,-34.91068 10.90822,-47.95962 28.53681,-62.882 15.89892,-13.45825 34.87242,-26.48617 55.55839,-31.31473 21.76406,-5.0802 43.88494,-6.59015 68.94291,3.283 22.99774,9.06139 40.80525,31.56095 50.50763,54.2957 7.47975,17.52666 6.80088,38.56341 2.27284,57.07361 -3.28292,13.42023 -10.2697,34.72672 -20.20305,35.60788 -10.61299,0.94145 -22.08346,-11.40151 -24.23127,-22.75766"
         style="fill:#f19bbc;fill-opacity:1;stroke:#000000;stroke-width:3.125;stroke-miterlimit:4;stroke-dasharray:none" />
      <path
         sodipodi:nodetypes="cssssc"
         inkscape:connector-curvature="0"
         id="path2870"
         d="m 223.87506,471.65074 c 0,0 -7.31383,-4.34174 -9.09137,-7.95495 -2.38284,-4.84359 -3.00599,-11.14696 -1.01016,-16.16244 1.91584,-4.81446 6.47929,-8.8783 11.36422,-10.6066 4.41519,-1.56211 12.37795,-2.12941 17.04633,0.12627 4.14365,2.00214 3.66801,8.33642 4.16688,11.23794"
         style="fill:#f19bbc;fill-opacity:1;stroke:#000000;stroke-width:3.125;stroke-linecap:round;stroke-linejoin:round;stroke-miterlimit:4;stroke-opacity:1;stroke-dasharray:none;stroke-dashoffset:1.5" />
      <path
         sodipodi:nodetypes="ssssss"
         inkscape:connector-curvature="0"
         id="path2872"
         d="m 374.51405,519.75926 c 3.79796,9.59582 7.04065,39.52 3.283,50.25509 -1.49767,4.27865 -8.11452,5.48457 -12.62691,5.05076 -5.88046,-0.56534 -10.23128,-5.9764 -14.89975,-9.59645 -4.89566,-3.79621 -9.08341,-8.42655 -13.63706,-12.62691 -3.10921,-2.86799 -9.34391,-8.58629 -9.34391,-8.58629"
         style="fill:#f19bbc;fill-opacity:1;stroke:#000000;stroke-width:3.125;stroke-linecap:round;stroke-linejoin:round;stroke-miterlimit:4;stroke-opacity:1;stroke-dasharray:none;stroke-dashoffset:1.5" />
      <path
         sodipodi:nodetypes="sssss"
         inkscape:connector-curvature="0"
         id="path2874"
         d="m 403.42967,555.61967 c 0.0181,-4.47831 6.02132,-7.03409 10.48033,-7.44987 4.44184,-0.41418 11.74323,1.48068 11.99556,5.93465 0.15955,2.81635 -6.41688,5.41292 -10.6066,5.80837 -4.18867,0.39535 -11.8754,-2.78423 -11.86929,-4.29315 z"
         style="fill:#fafcfa;fill-opacity:1;stroke:#000000;stroke-width:3.125;stroke-linecap:round;stroke-linejoin:round;stroke-miterlimit:4;stroke-opacity:1;stroke-dasharray:none;stroke-dashoffset:1.5" />
      <path
         id="path2876"
         d="m 361.03125,561.1875 c -1.19535,0.0705 -2.32308,0.43206 -3.3125,1.25 -1.76163,1.45631 -2.04475,4.63891 -1.8125,7.8125 2.81445,2.38082 5.7378,4.47484 9.25,4.8125 4.51239,0.43381 11.15858,-0.78385 12.65625,-5.0625 0.23186,-0.66238 0.41368,-1.38829 0.59375,-2.1875 -0.005,-0.003 0.005,-0.0286 0,-0.0312 -2.11082,-1.21568 -4.17769,-2.28309 -5.90625,-2.9375 -3.60173,-1.36357 -7.8827,-3.86771 -11.46875,-3.65625 z"
         style="fill:#fafcfa;fill-opacity:1;stroke:#000000;stroke-width:3.125;stroke-linecap:round;stroke-linejoin:round;stroke-miterlimit:4;stroke-opacity:1;stroke-dasharray:none;stroke-dashoffset:1.5"
         inkscape:connector-curvature="0" />
      <path
         sodipodi:nodetypes="csssc"
         inkscape:connector-curvature="0"
         id="path2881"
         d="m 282.84271,547.03338 c 0,0 -35.43422,17.40814 -54.54824,21.46574 -7.58284,1.60971 -19.52014,2.16268 -22.72842,-1.51523 -3.88234,-4.45063 1.37128,-13.54376 3.78806,-21.21321 6.71294,-21.30298 32.32489,-60.86169 32.32489,-60.86169"
         style="fill:#f19bbc;fill-opacity:1;stroke:#000000;stroke-width:3.125;stroke-linecap:round;stroke-linejoin:round;stroke-miterlimit:4;stroke-opacity:1;stroke-dasharray:none;stroke-dashoffset:1.5" />
      <path
         sodipodi:nodetypes="sssss"
         inkscape:connector-curvature="0"
         id="path2883"
         d="m 206.78571,563.79076 c 3.79868,-0.95477 10.57932,-0.46613 11.25,3.39285 0.63398,3.64778 -5.2955,5.8937 -8.92857,6.60715 -3.31489,0.65097 -8.92663,0.75754 -9.82143,-2.50001 -0.93647,-3.40925 4.07112,-6.63816 7.5,-7.49999 z"
         style="fill:#fafcfa;fill-opacity:1;stroke:#000000;stroke-width:3.125;stroke-linecap:round;stroke-linejoin:round;stroke-miterlimit:4;stroke-opacity:1;stroke-dasharray:none;stroke-dashoffset:1.5" />
      <path
         sodipodi:nodetypes="sssssss"
         inkscape:connector-curvature="0"
         id="path2885"
         d="m 349.64285,505.93361 c 0,0 4.22328,-33.78053 -13.57142,-48.57142 -11.50524,-9.56311 -25.32862,-17.42896 -40,-20.35715 -15.2217,-3.03802 -32.12131,-2.44788 -46.42857,3.57143 -11.81948,4.97266 -21.90503,14.40331 -28.57144,25.35714 -5.67407,9.32327 -7.65582,23.28393 -6.24999,34.10715 0.92643,7.13237 8.39285,16.60714 8.39285,16.60714"
         style="fill:#f19bbc;fill-opacity:1;stroke:#000000;stroke-width:3.125;stroke-linecap:round;stroke-linejoin:round;stroke-miterlimit:4;stroke-opacity:1;stroke-dasharray:none;stroke-dashoffset:1.5" />
      <path
         sodipodi:nodetypes="ssssssss"
         inkscape:connector-curvature="0"
         id="path2887"
         d="m 314.28571,460.75504 c 0,0 -1.01018,-12.99865 8.92857,-17.85714 9.73832,-4.7605 20.64194,-0.54469 27.5,6.25 5.53154,5.48041 7.4128,13.84265 5.00001,21.42858 -2.1629,6.80022 -12.49502,11.71168 -18.39286,10.53571 -7.12196,-1.42005 -12.19449,-8.63714 -12.5,-15.89286 -0.27245,-6.47046 5.97623,-11.37561 13.75,-11.42857 6.92013,-0.0471 8.03571,8.92857 8.03571,8.92857"
         style="fill:#f19bbc;fill-opacity:1;stroke:#000000;stroke-width:3.125;stroke-linecap:round;stroke-linejoin:round;stroke-miterlimit:4;stroke-opacity:1;stroke-dasharray:none;stroke-dashoffset:1.5" />
      <path
         sodipodi:nodetypes="ssssss"
         inkscape:connector-curvature="0"
         id="path2900"
         d="m 273.92857,473.96933 c -4.09486,8.93996 -1.74015,23.55256 6.60715,28.75 8.82458,5.49462 24.98097,1.97001 29.64285,-7.32143 2.24143,-4.46733 1.88311,-13.55505 -0.53571,-18.92857 -3.19209,-7.09137 -12.7591,-11.03802 -20.53572,-11.07143 -5.99089,-0.0257 -12.68374,3.12466 -15.17857,8.57143 z"
         style="fill:#fafcfa;fill-opacity:1;stroke:#000000;stroke-width:3.125;stroke-linecap:round;stroke-linejoin:round;stroke-miterlimit:4;stroke-opacity:1;stroke-dasharray:none;stroke-dashoffset:1.5" />
      <path
         id="path2902"
         d="m 229.59375,461.25 c -2.27975,-0.0273 -4.99226,1.25481 -7.21875,2.625 -0.005,0.007 0.005,0.024 0,0.0312 -0.44295,0.672 -0.89585,1.34664 -1.3125,2.03125 -3.78915,6.22608 -5.91333,14.51568 -6.5,22.5625 0.57655,0.63065 1.2292,1.18344 2.03125,1.53125 3.98953,1.73007 8.61665,-0.95736 11.8125,-3.90625 2.82051,-2.60256 3.91046,-6.79182 4.625,-10.5625 0.82077,-4.3313 2.04633,-10.64764 -0.53125,-13.1875 -0.79514,-0.7835 -1.79727,-1.11173 -2.90625,-1.125 z"
         style="fill:#fafcfa;fill-opacity:1;stroke:#000000;stroke-width:3.125;stroke-linecap:round;stroke-linejoin:round;stroke-miterlimit:4;stroke-opacity:1;stroke-dasharray:none;stroke-dashoffset:1.5"
         inkscape:connector-curvature="0" />
      <path
         transform="matrix(1.493253,0,0,1.5571806,-143.08561,-267.54471)"
         d="m 292.32143,480.57648 c 0,1.08484 -0.87944,1.96428 -1.96428,1.96428 -1.08485,0 -1.96429,-0.87944 -1.96429,-1.96428 0,-1.08485 0.87944,-1.96429 1.96429,-1.96429 1.08484,0 1.96428,0.87944 1.96428,1.96429 z"
         sodipodi:ry="1.9642857"
         sodipodi:rx="1.9642857"
         sodipodi:cy="480.57648"
         sodipodi:cx="290.35715"
         id="path2907"
         style="fill:#000000;stroke:none"
         sodipodi:type="arc" />
      <path
         transform="matrix(1.2708333,0,0,1.2708333,-61.049109,-127.83284)"
         d="m 227.58928,472.98718 c 0,1.18347 -0.67956,2.14286 -1.51785,2.14286 -0.83829,0 -1.51786,-0.95939 -1.51786,-2.14286 0,-1.18346 0.67957,-2.14285 1.51786,-2.14285 0.83829,0 1.51785,0.95939 1.51785,2.14285 z"
         sodipodi:ry="2.1428571"
         sodipodi:rx="1.5178572"
         sodipodi:cy="472.98718"
         sodipodi:cx="226.07143"
         id="path2909"
         style="fill:#000000;stroke:none"
         sodipodi:type="arc" />
      <path
         style="fill:#720006;fill-opacity:1;stroke:#000000;stroke-width:3.125;stroke-linecap:round;stroke-linejoin:round;stroke-miterlimit:4;stroke-opacity:1;stroke-dasharray:none;stroke-dashoffset:1.5"
         d="m 239.28571,513.07647 c 0,0 -13.56282,11.3311 -15.89286,18.57143 -4.39747,13.66464 8.00641,22.28231 14.28572,25.71429 7.3154,3.99826 29.18818,-3.04084 37.14285,-5.53572 9.02643,-2.83102 15.5565,-8.2193 21.96429,-15.17857 3.80667,-4.13429 8.92858,-13.21428 8.92858,-13.21428"
         id="path2913"
         inkscape:connector-curvature="0"
         sodipodi:nodetypes="ssssss" />
      <path
         sodipodi:nodetypes="csssss"
         inkscape:connector-curvature="0"
         id="path2911"
         d="m 249.10714,516.82647 c 0,0 -14.63527,11.0701 -15.89286,18.57143 -1.18318,7.0575 4.79212,14.96088 11.07143,18.39286 7.3154,3.99826 17.04533,1.78059 25,-0.71429 9.02643,-2.83102 17.34221,-8.57644 23.75,-15.53571 3.80667,-4.13429 8.03572,-14.82143 8.03572,-14.82143"
         style="fill:#e68fa9;fill-opacity:1;stroke:#000000;stroke-width:3.125;stroke-linecap:round;stroke-linejoin:round;stroke-miterlimit:4;stroke-opacity:1;stroke-dasharray:none;stroke-dashoffset:1.5" />
      <path
         sodipodi:nodetypes="sss"
         inkscape:connector-curvature="0"
         id="path2915"
         d="m 265.53571,528.07647 c 0,0 0.50359,12.96248 5.17857,13.03572 3.50714,0.0549 5.17858,-12.14286 5.17858,-12.14286"
         style="fill:#fafcfa;fill-opacity:1;stroke:#000000;stroke-width:3.125;stroke-linecap:round;stroke-linejoin:round;stroke-miterlimit:4;stroke-opacity:1;stroke-dasharray:none;stroke-dashoffset:1.5" />
      <path
         sodipodi:nodetypes="szs"
         inkscape:connector-curvature="0"
         id="path2917"
         d="m 219.64286,517.8979 c 0,0 0.36351,12.1884 2.67857,12.14286 2.31506,-0.0455 6.42857,-10.71429 6.42857,-10.71429"
         style="fill:#fafcfa;fill-opacity:1;stroke:#000000;stroke-width:3.125;stroke-linecap:round;stroke-linejoin:round;stroke-miterlimit:4;stroke-opacity:1;stroke-dasharray:none;stroke-dashoffset:1.5" />
      <path
         sodipodi:nodetypes="cssc"
         inkscape:connector-curvature="0"
         id="path2919"
         d="m 202.49999,517.18361 c 0,0 0.67591,7.18973 2.67858,10 1.54254,2.1646 4.04918,5.1866 6.60715,4.46429 3.46098,-0.9773 1.10591,-12.90887 1.42857,-13.39286"
         style="fill:#fafcfa;fill-opacity:1;stroke:#000000;stroke-width:3.125;stroke-linecap:round;stroke-linejoin:round;stroke-miterlimit:4;stroke-opacity:1;stroke-dasharray:none;stroke-dashoffset:1.5" />
      <path
         id="path2921"
         d="m 247.53125,480.625 c -5.87156,0.0838 -11.32847,1.03187 -17.1875,1.65625 -12.36316,1.3175 -19.35615,5.63187 -26.5,11.5 -4.87683,4.00594 -10.11589,11.59104 -9.6875,18 0.3523,5.27061 1.37383,8.63211 7.3125,13.125 1.46332,1.10707 9.03708,-1.7449 13.28125,-2.25 4.84712,-0.57685 9.77257,-1.38584 14,-0.28125 -1.61276,3.0301 -3.50855,6.3184 -6.125,8.875 -2.09755,2.04951 -5.21244,7.98016 -2.09375,15.21875 2.04401,4.74423 7.85968,13.61339 18.40625,16.96875 9.79005,3.11467 27.93781,3.58916 33.5625,2.3125 13.33687,-3.02712 35.52975,-22.30177 42.78125,-35.625 0,0 0.50258,-3.13239 0.625,-4.71875 0.20157,-2.61196 0.6182,-5.29633 0.15625,-7.875 -0.59838,-3.34021 -1.14058,-7.12751 -3.90625,-9.09375 -14.79885,-10.52112 -40.83894,-24.25135 -53.40625,-26.78125 -4.02563,-0.81039 -7.69582,-1.0815 -11.21875,-1.03125 z m -18.21875,42.03125 c 4.69253,1.98168 7.90886,4.15523 12.125,5.5625 13.70776,4.57541 27.3292,6.15083 42.65625,2.78125 3.56003,-0.78266 7.6638,-2.45611 11.53125,-3.03125 1.33149,-0.19801 2.62852,-0.27032 3.875,-0.125 1.6454,0.19182 4.4375,2.28125 4.4375,2.28125 -3.15778,-2.65348 -5.79458,-2.70209 -8.3125,-2.15625 0,0 -4.97924,9.77314 -7.34375,13.125 -10.31049,14.61582 -47.79496,17.93074 -63.53125,2.78125 -4.8622,-4.68089 -0.3415,-15.06657 4.5625,-21.21875 z"
         style="fill:#f2f5cf;fill-opacity:1;stroke:#000000;stroke-width:3.125;stroke-linecap:round;stroke-linejoin:round;stroke-miterlimit:4;stroke-opacity:1;stroke-dasharray:none;stroke-dashoffset:1.5"
         inkscape:connector-curvature="0"
         sodipodi:nodetypes="ssssssccssscssssscssssccssc" />
      <path
         sodipodi:nodetypes="cc"
         inkscape:connector-curvature="0"
         id="path2891"
         d="m 212.0689,507.51115 c 2.71695,1.77041 4.04829,4.29661 4.92449,7.07107"
         style="fill:none;stroke:#000000;stroke-width:2.5;stroke-linecap:round;stroke-linejoin:round;stroke-miterlimit:4;stroke-opacity:1;stroke-dasharray:none;stroke-dashoffset:1.5" />
      <path
         sodipodi:nodetypes="cc"
         inkscape:connector-curvature="0"
         id="path2893"
         d="m 236.63048,514.15403 c 0.9496,0.41586 6.57509,-4.47814 6.24807,-5.00138"
         style="fill:none;stroke:#000000;stroke-width:2.5;stroke-linecap:round;stroke-linejoin:round;stroke-miterlimit:4;stroke-opacity:1;stroke-dasharray:none;stroke-dashoffset:1.5" />
      <path
         sodipodi:nodetypes="cssssscsscsscc"
         inkscape:connector-curvature="0"
         id="path2895"
         d="m 343.65625,315.09375 c -10.76984,2.12853 -20.90827,5.70544 -29.0625,10.8125 -6.43623,4.03106 -12.49101,10.90623 -21.90625,12.34375 -2.28292,0.34856 -5.42388,1.06466 -8.125,1.78125 -1.35056,0.35829 -2.65374,0.61901 -3.64142,0.87341 -3.49702,0.90077 -4.59734,2.88518 0.29757,3.37659 1.31533,0.13205 3.07166,0.32953 5,0.4375 3.85668,0.216 8.41759,0.23649 11.53125,-0.0312 9.17976,-0.78936 18.08153,-5.18408 27.8125,-6.4375 6.05331,-0.7797 12.17371,-1.33973 18.3125,-1.5625 0.094,-1.87783 0.12463,-3.6959 -0.0312,-5.1875 -0.35157,-3.36408 -3.07694,-6.34066 -2.90625,-9.71875 0.0989,-1.95656 1.19721,-4.30994 2.71875,-6.6875 z"
         style="fill:#eefcee;fill-opacity:1;stroke:none" />
    </g>
  </g>
</svg>
